# xmcd
#
# Track frame offsets: 
#        183
#        11370
#        25940
#        38435
#        52745
#        64148
#        77073
#        91270
#        103500
#        113723
#        124878
#        135040
#        145038
#        156798
#        168410
#        180850
#        193428
#        205165
#        216180
#        227138
#        239155
#        249468
#        262303
#
# Disc length: 3641 seconds
#
# Revision: 3
# Processed by: cddbd v1.5.2PL0 Copyright (c) Steve Scherf et al.
# Submitted via: ExactAudioCopy v1.0b1
#
DISCID=340e3717
DTITLE=Jimmy Reed - Vee-Jay Years - Disc 2
DYEAR=1900
DGENRE=blues
TTITLE0=It's You Baby
TTITLE1=Honey, Where Are You Going
TTITLE2=Do The Thing
TTITLE3=Little Rain
TTITLE4=Signals Of Love
TTITLE5=Sun Is Shining
TTITLE6=Baby, What's On Your Mind
TTITLE7=Honest I Do
TTITLE8=State Street Boogie
TTITLE9=Odds And Ends
TTITLE10=My Bitter Seed
TTITLE11=Ends And Odds
TTITLE12=My Baby (Down In Virginia)
TTITLE13=You're Something Else
TTITLE14=String To Your Heart
TTITLE15=Go On To School
TTITLE16=You Got Me Crying
TTITLE17=Moon Is Rising
TTITLE18=Down In Virginia
TTITLE19=I'm Gonna Get My Baby
TTITLE20=I Wanna Be Loved
TTITLE21=Caress My Baby
TTITLE22=I Know It's A Sin
EXTD=
EXTT0=
EXTT1=
EXTT2=
EXTT3=
EXTT4=
EXTT5=
EXTT6=
EXTT7=
EXTT8=
EXTT9=
EXTT10=
EXTT11=
EXTT12=
EXTT13=
EXTT14=
EXTT15=
EXTT16=
EXTT17=
EXTT18=
EXTT19=
EXTT20=
EXTT21=
EXTT22=
PLAYORDER=
